<?xml version="1.0" encoding="UTF-8" standalone="no"?>
<!-- Generator: Adobe Illustrator 21.1.0, SVG Export Plug-In . SVG Version: 6.00 Build 0)  -->

<svg
   xmlns:dc="http://purl.org/dc/elements/1.1/"
   xmlns:cc="http://creativecommons.org/ns#"
   xmlns:rdf="http://www.w3.org/1999/02/22-rdf-syntax-ns#"
   xmlns:svg="http://www.w3.org/2000/svg"
   xmlns="http://www.w3.org/2000/svg"
   xmlns:xlink="http://www.w3.org/1999/xlink"
   xmlns:sodipodi="http://sodipodi.sourceforge.net/DTD/sodipodi-0.dtd"
   xmlns:inkscape="http://www.inkscape.org/namespaces/inkscape"
   version="1.1"
   id="Capa_1"
   x="0px"
   y="0px"
   viewBox="0 0 180 35"
   style="enable-background:new 0 0 180 35;"
   xml:space="preserve"
   inkscape:version="0.91 r13725"
   sodipodi:docname="logo-footer.svg"><metadata
     id="metadata163"><rdf:RDF><cc:Work
         rdf:about=""><dc:format>image/svg+xml</dc:format><dc:type
           rdf:resource="http://purl.org/dc/dcmitype/StillImage" /><dc:title></dc:title></cc:Work></rdf:RDF></metadata><defs
     id="defs161" /><sodipodi:namedview
     pagecolor="#ffffff"
     bordercolor="#666666"
     borderopacity="1"
     objecttolerance="10"
     gridtolerance="10"
     guidetolerance="10"
     inkscape:pageopacity="0"
     inkscape:pageshadow="2"
     inkscape:window-width="1366"
     inkscape:window-height="704"
     id="namedview159"
     showgrid="false"
     inkscape:zoom="3.0562726"
     inkscape:cx="74.251201"
     inkscape:cy="-16.031433"
     inkscape:window-x="0"
     inkscape:window-y="27"
     inkscape:window-maximized="1"
     inkscape:current-layer="g5" /><style
     type="text/css"
     id="style3">
	.st0{fill:#00B3D0;}
	.st1{fill:#FFFFFF;}
	.st2{opacity:0.44;}
	.st3{clip-path:url(#SVGID_2_);}
	.st4{fill:url(#SVGID_3_);}
	.st5{fill:url(#SVGID_4_);}
	.st6{fill:url(#SVGID_5_);}
	.st7{fill:url(#SVGID_6_);}
	.st8{fill:url(#SVGID_7_);}
	.st9{fill:url(#SVGID_8_);}
	.st10{fill:url(#SVGID_9_);}
	.st11{fill:url(#SVGID_10_);}
	.st12{fill:url(#SVGID_11_);}
	.st13{opacity:0.3;fill:url(#SVGID_12_);}
	.st14{opacity:0.3;fill:url(#SVGID_13_);}
	.st15{opacity:0.3;fill:url(#SVGID_14_);}
	.st16{opacity:0.3;fill:url(#SVGID_15_);}
	.st17{opacity:5.000000e-02;}
	.st18{fill:url(#SVGID_16_);}
	.st19{fill:url(#SVGID_17_);}
	.st20{fill:url(#SVGID_18_);}
</style><g
     id="g5"><path
       class="st0"
       d="M56.3,4.9l10,21L79,0.7h4.7l-17.1,34l-10-19.8L56.3,4.9z"
       id="path7"
       style="fill:#ffffff" /><path
       class="st0"
       d="M87.2,28.2h12.6v4.3H82.9V4.9h14.8v4.3H87.2v4.7h10.5v4.3H87.2V28.2z"
       id="path9"
       style="fill:#ffffff" /><path
       class="st0"
       d="M103.1,4.9h13.2c6.7,0,10,3.1,10,9.4c0,5.8-2.8,9-8.4,9.5l5,8.7h-4.7l-4.9-8.7h-5.9v8.7h-4.3V4.9z M122.2,14.3   c0-3.4-1.8-5.1-5.4-5.1h-9.4v10.3h9.4C120.4,19.5,122.2,17.8,122.2,14.3z"
       id="path11"
       style="fill:#ffffff" /><path
       class="st0"
       d="M145.2,24.1c0-2.6-1.6-3.9-4.7-3.9h-3c-5.6,0-8.5-2.6-8.5-7.9c0-4.9,2.8-7.3,8.4-7.3h8.2v4.3h-8.7   c-2.4,0-3.7,1-3.7,3.1c0,2.4,1.2,3.6,3.7,3.6h3.1c6.3,0,9.4,2.8,9.4,8.3c0,5.5-3.1,8.3-9.4,8.3h-10.7v-4.3h11.2   C143.6,28.2,145.2,26.8,145.2,24.1z"
       id="path13"
       style="fill:#ffffff" /><g
       id="g15"
       style="fill:#ffffff"><path
         class="st1"
         d="M12,27.9c4.5,0,6.8-3.1,6.8-9.3v-14h4.3v13.9c0,9.3-3.7,13.9-11.1,13.9c-7.9,0-11.9-4.6-11.9-13.8v-14h4.3v14    C4.5,24.8,7,27.9,12,27.9z"
         id="path17"
         style="fill:#ffffff" /><path
         class="st1"
         d="M43.9,32.1L30.2,13.6v18.5h-4.3V4.6h2.6L42.3,23V0.3h4.2v31.8H43.9z"
         id="path19"
         style="fill:#ffffff" /><path
         class="st1"
         d="M50,32.1V4.6h4.3v27.6H50z"
         id="path21"
         style="fill:#ffffff" /></g><g
       id="g23"
       style="fill:#ffffff"><path
         class="st0"
         d="M152.2,18.7c0-1.3,0.2-2.5,0.5-3.7c0.3-1.2,0.8-2.3,1.4-3.3c0.6-1,1.3-2,2.2-2.8s1.8-1.6,2.8-2.2    c1-0.6,2.1-1.1,3.3-1.4c1.2-0.3,2.4-0.5,3.7-0.5c1.3,0,2.5,0.2,3.7,0.5s2.3,0.8,3.3,1.4c1,0.6,2,1.3,2.8,2.2    c0.8,0.8,1.6,1.8,2.2,2.8c0.6,1,1.1,2.1,1.4,3.3c0.3,1.2,0.5,2.4,0.5,3.7c0,1.3-0.2,2.5-0.5,3.7c-0.3,1.2-0.8,2.3-1.4,3.3    c-0.6,1-1.3,1.9-2.2,2.8c-0.8,0.8-1.8,1.6-2.8,2.2c-1,0.6-2.1,1.1-3.3,1.4c-1.2,0.3-2.4,0.5-3.7,0.5c-1.3,0-2.5-0.2-3.7-0.5    c-1.2-0.3-2.3-0.8-3.3-1.4c-1-0.6-2-1.3-2.8-2.2s-1.6-1.8-2.2-2.8c-0.6-1-1.1-2.1-1.4-3.3C152.4,21.2,152.2,20,152.2,18.7z     M158.5,18.5c0,1,0.2,2,0.6,2.9c0.4,0.9,0.9,1.7,1.6,2.4c0.7,0.7,1.5,1.2,2.4,1.6c0.9,0.4,1.9,0.6,3,0.6s2.1-0.2,3-0.6    c0.9-0.4,1.7-0.9,2.4-1.6c0.7-0.7,1.2-1.5,1.6-2.4c0.4-0.9,0.6-1.9,0.6-2.9c0-1-0.2-2-0.6-2.9c-0.4-0.9-0.9-1.7-1.6-2.4    c-0.7-0.7-1.5-1.2-2.4-1.6c-0.9-0.4-1.9-0.6-3-0.6s-2.1,0.2-3,0.6c-0.9,0.4-1.7,0.9-2.4,1.6c-0.7,0.7-1.2,1.5-1.6,2.4    C158.7,16.5,158.5,17.5,158.5,18.5z"
         id="path25"
         style="fill:#ffffff" /></g><g
       class="st2"
       id="g27"><defs
         id="defs29"><path
           id="SVGID_1_"
           class="st2"
           d="M165.9,32.4c-3.7,0-7.1-1.4-9.8-4.1c-5.4-5.4-5.4-14.2,0-19.6c2.6-2.6,6.1-4.1,9.8-4.1     c3.7,0,7.1,1.4,9.8,4.1c2.6,2.6,4,6.1,4,9.8s-1.4,7.2-4,9.8C173.1,30.9,169.6,32.4,165.9,32.4C165.9,32.4,165.9,32.4,165.9,32.4z      M165.9,11.1c-2,0-3.8,0.8-5.2,2.2c-2.9,2.9-2.9,7.6,0,10.5c1.4,1.4,3.2,2.2,5.2,2.2c2,0,3.8-0.8,5.2-2.2c2.9-2.9,2.9-7.6,0-10.5     C169.7,11.9,167.9,11.1,165.9,11.1z" /></defs><clipPath
         id="SVGID_2_"><use
           xlink:href="#SVGID_1_"
           style="overflow:visible;"
           id="use33" /></clipPath></g><linearGradient
       id="SVGID_12_"
       gradientUnits="userSpaceOnUse"
       x1="56.1917"
       y1="17.5741"
       x2="83.9248"
       y2="17.5741"><stop
         offset="0"
         style="stop-color:#49BEEE"
         id="stop107" /><stop
         offset="1"
         style="stop-color:#19559F"
         id="stop109" /></linearGradient><path
       class="st13"
       d="M56.2,4.8l10.2,21L79.1,0.6h4.8l-17.4,34L56.4,14.7L56.2,4.8z"
       id="path111"
       style="fill:#ffffff" /><linearGradient
       id="SVGID_13_"
       gradientUnits="userSpaceOnUse"
       x1="82.8802"
       y1="18.8569"
       x2="99.7687"
       y2="18.8569"><stop
         offset="0"
         style="stop-color:#49BEEE"
         id="stop114" /><stop
         offset="1"
         style="stop-color:#19559F"
         id="stop116" /></linearGradient><path
       class="st14"
       d="M87.2,28.3h12.6v4.3H82.9V5.1h14.8v4.3H87.2v4.7h10.5v4.3H87.2V28.3z"
       id="path118"
       style="fill:#ffffff" /><linearGradient
       id="SVGID_14_"
       gradientUnits="userSpaceOnUse"
       x1="103.092"
       y1="18.8569"
       x2="126.3185"
       y2="18.8569"><stop
         offset="0"
         style="stop-color:#49BEEE"
         id="stop121" /><stop
         offset="1"
         style="stop-color:#19559F"
         id="stop123" /></linearGradient><path
       class="st15"
       d="M103.1,5.1h13.2c6.7,0,10,3.1,10,9.4c0,5.8-2.8,9-8.4,9.5l5,8.7h-4.7l-4.9-8.7h-5.9v8.7h-4.3V5.1z    M122.2,14.5c0-3.4-1.8-5.1-5.4-5.1h-9.4v10.3h9.4C120.4,19.7,122.2,17.9,122.2,14.5z"
       id="path125"
       style="fill:#ffffff" /><linearGradient
       id="SVGID_15_"
       gradientUnits="userSpaceOnUse"
       x1="128.9464"
       y1="18.8569"
       x2="149.3128"
       y2="18.8569"><stop
         offset="0"
         style="stop-color:#49BEEE"
         id="stop128" /><stop
         offset="1"
         style="stop-color:#19559F"
         id="stop130" /></linearGradient><path
       class="st16"
       d="M145.1,24.2c0-2.6-1.6-3.9-4.7-3.9h-3c-5.6,0-8.5-2.6-8.5-7.9c0-4.9,2.8-7.3,8.4-7.3h8.2v4.3h-8.7   c-2.4,0-3.7,1-3.7,3.1c0,2.4,1.2,3.6,3.7,3.6h3.1c6.3,0,9.4,2.8,9.4,8.3c0,5.5-3.1,8.3-9.4,8.3h-10.7v-4.3h11.2   C143.6,28.3,145.1,27,145.1,24.2z"
       id="path132"
       style="fill:#ffffff" /><g
       class="st17"
       id="g134"
       style="fill:#ffffff"><g
         id="g136"
         style="fill:#ffffff"><linearGradient
           id="SVGID_16_"
           gradientUnits="userSpaceOnUse"
           x1="0.15"
           y1="18.6014"
           x2="23.0671"
           y2="18.6014"><stop
             offset="0"
             style="stop-color:#49BEEE"
             id="stop139" /><stop
             offset="1"
             style="stop-color:#19559F"
             id="stop141" /></linearGradient><path
           class="st18"
           d="M12,28.1c4.5,0,6.8-3.1,6.8-9.3v-14h4.3v13.9c0,9.3-3.7,13.9-11.1,13.9c-7.9,0-11.9-4.6-11.9-13.8v-14h4.3     v14C4.5,25,7,28.1,12,28.1z"
           id="path143"
           style="fill:#ffffff" /><linearGradient
           id="SVGID_17_"
           gradientUnits="userSpaceOnUse"
           x1="25.8492"
           y1="16.3986"
           x2="46.4865"
           y2="16.3986"><stop
             offset="0"
             style="stop-color:#49BEEE"
             id="stop146" /><stop
             offset="1"
             style="stop-color:#19559F"
             id="stop148" /></linearGradient><path
           class="st19"
           d="M43.9,32.3L30.1,13.8v18.5h-4.3V4.7h2.6l13.8,18.5V0.5h4.2v31.8H43.9z"
           id="path150"
           style="fill:#ffffff" /><linearGradient
           id="SVGID_18_"
           gradientUnits="userSpaceOnUse"
           x1="50.0031"
           y1="18.5048"
           x2="54.2931"
           y2="18.5048"><stop
             offset="0"
             style="stop-color:#49BEEE"
             id="stop153" /><stop
             offset="1"
             style="stop-color:#19559F"
             id="stop155" /></linearGradient><path
           class="st20"
           d="M50,32.3V4.7h4.3v27.6H50z"
           id="path157"
           style="fill:#ffffff" /></g></g></g></svg>