<?xml version="1.0" encoding="utf-8"?>
<!-- Generator: Adobe Illustrator 21.1.0, SVG Export Plug-In . SVG Version: 6.00 Build 0)  -->
<svg version="1.1" id="Capa_1" xmlns="http://www.w3.org/2000/svg" xmlns:xlink="http://www.w3.org/1999/xlink" x="0px" y="0px"
	 viewBox="0 0 180 35" style="enable-background:new 0 0 180 35;" xml:space="preserve">
<style type="text/css">
	.st0{fill:#00B3D0;}
	.st1{fill:#FFFFFF;}
	.st2{opacity:0.44;}
	.st3{clip-path:url(#SVGID_2_);}
	.st4{fill:url(#SVGID_3_);}
	.st5{fill:url(#SVGID_4_);}
	.st6{fill:url(#SVGID_5_);}
	.st7{fill:url(#SVGID_6_);}
	.st8{fill:url(#SVGID_7_);}
	.st9{fill:url(#SVGID_8_);}
	.st10{fill:url(#SVGID_9_);}
	.st11{fill:url(#SVGID_10_);}
	.st12{fill:url(#SVGID_11_);}
	.st13{opacity:0.3;fill:url(#SVGID_12_);}
	.st14{opacity:0.3;fill:url(#SVGID_13_);}
	.st15{opacity:0.3;fill:url(#SVGID_14_);}
	.st16{opacity:0.3;fill:url(#SVGID_15_);}
	.st17{opacity:5.000000e-02;}
	.st18{fill:url(#SVGID_16_);}
	.st19{fill:url(#SVGID_17_);}
	.st20{fill:url(#SVGID_18_);}
</style>
<g>
	<path class="st0" d="M56.3,4.9l10,21L79,0.7h4.7l-17.1,34l-10-19.8L56.3,4.9z"/>
	<path class="st0" d="M87.2,28.2h12.6v4.3H82.9V4.9h14.8v4.3H87.2v4.7h10.5v4.3H87.2V28.2z"/>
	<path class="st0" d="M103.1,4.9h13.2c6.7,0,10,3.1,10,9.4c0,5.8-2.8,9-8.4,9.5l5,8.7h-4.7l-4.9-8.7h-5.9v8.7h-4.3V4.9z M122.2,14.3
		c0-3.4-1.8-5.1-5.4-5.1h-9.4v10.3h9.4C120.4,19.5,122.2,17.8,122.2,14.3z"/>
	<path class="st0" d="M145.2,24.1c0-2.6-1.6-3.9-4.7-3.9h-3c-5.6,0-8.5-2.6-8.5-7.9c0-4.9,2.8-7.3,8.4-7.3h8.2v4.3h-8.7
		c-2.4,0-3.7,1-3.7,3.1c0,2.4,1.2,3.6,3.7,3.6h3.1c6.3,0,9.4,2.8,9.4,8.3c0,5.5-3.1,8.3-9.4,8.3h-10.7v-4.3h11.2
		C143.6,28.2,145.2,26.8,145.2,24.1z"/>
	<g>
		<path class="st1" d="M12,27.9c4.5,0,6.8-3.1,6.8-9.3v-14h4.3v13.9c0,9.3-3.7,13.9-11.1,13.9c-7.9,0-11.9-4.6-11.9-13.8v-14h4.3v14
			C4.5,24.8,7,27.9,12,27.9z"/>
		<path class="st1" d="M43.9,32.1L30.2,13.6v18.5h-4.3V4.6h2.6L42.3,23V0.3h4.2v31.8H43.9z"/>
		<path class="st1" d="M50,32.1V4.6h4.3v27.6H50z"/>
	</g>
	<g>
		<path class="st0" d="M152.2,18.7c0-1.3,0.2-2.5,0.5-3.7c0.3-1.2,0.8-2.3,1.4-3.3c0.6-1,1.3-2,2.2-2.8s1.8-1.6,2.8-2.2
			c1-0.6,2.1-1.1,3.3-1.4c1.2-0.3,2.4-0.5,3.7-0.5c1.3,0,2.5,0.2,3.7,0.5s2.3,0.8,3.3,1.4c1,0.6,2,1.3,2.8,2.2
			c0.8,0.8,1.6,1.8,2.2,2.8c0.6,1,1.1,2.1,1.4,3.3c0.3,1.2,0.5,2.4,0.5,3.7c0,1.3-0.2,2.5-0.5,3.7c-0.3,1.2-0.8,2.3-1.4,3.3
			c-0.6,1-1.3,1.9-2.2,2.8c-0.8,0.8-1.8,1.6-2.8,2.2c-1,0.6-2.1,1.1-3.3,1.4c-1.2,0.3-2.4,0.5-3.7,0.5c-1.3,0-2.5-0.2-3.7-0.5
			c-1.2-0.3-2.3-0.8-3.3-1.4c-1-0.6-2-1.3-2.8-2.2s-1.6-1.8-2.2-2.8c-0.6-1-1.1-2.1-1.4-3.3C152.4,21.2,152.2,20,152.2,18.7z
			 M158.5,18.5c0,1,0.2,2,0.6,2.9c0.4,0.9,0.9,1.7,1.6,2.4c0.7,0.7,1.5,1.2,2.4,1.6c0.9,0.4,1.9,0.6,3,0.6s2.1-0.2,3-0.6
			c0.9-0.4,1.7-0.9,2.4-1.6c0.7-0.7,1.2-1.5,1.6-2.4c0.4-0.9,0.6-1.9,0.6-2.9c0-1-0.2-2-0.6-2.9c-0.4-0.9-0.9-1.7-1.6-2.4
			c-0.7-0.7-1.5-1.2-2.4-1.6c-0.9-0.4-1.9-0.6-3-0.6s-2.1,0.2-3,0.6c-0.9,0.4-1.7,0.9-2.4,1.6c-0.7,0.7-1.2,1.5-1.6,2.4
			C158.7,16.5,158.5,17.5,158.5,18.5z"/>
	</g>
	<g class="st2">
		<defs>
			<path id="SVGID_1_" class="st2" d="M165.9,32.4c-3.7,0-7.1-1.4-9.8-4.1c-5.4-5.4-5.4-14.2,0-19.6c2.6-2.6,6.1-4.1,9.8-4.1
				c3.7,0,7.1,1.4,9.8,4.1c2.6,2.6,4,6.1,4,9.8s-1.4,7.2-4,9.8C173.1,30.9,169.6,32.4,165.9,32.4C165.9,32.4,165.9,32.4,165.9,32.4z
				 M165.9,11.1c-2,0-3.8,0.8-5.2,2.2c-2.9,2.9-2.9,7.6,0,10.5c1.4,1.4,3.2,2.2,5.2,2.2c2,0,3.8-0.8,5.2-2.2c2.9-2.9,2.9-7.6,0-10.5
				C169.7,11.9,167.9,11.1,165.9,11.1z"/>
		</defs>
		<clipPath id="SVGID_2_">
			<use xlink:href="#SVGID_1_"  style="overflow:visible;"/>
		</clipPath>
		<g class="st3">
			<linearGradient id="SVGID_3_" gradientUnits="userSpaceOnUse" x1="163.0893" y1="3.2548" x2="169.3406" y2="37.519">
				<stop  offset="0" style="stop-color:#4689C8"/>
				<stop  offset="1" style="stop-color:#223262"/>
			</linearGradient>
			<path class="st4" d="M155.4,8.1c-5.8,5.8-5.8,15.3,0,21.1c5.8,5.8,15.2,5.8,21,0c5.8-5.8,5.8-15.3,0-21.1
				C170.6,2.3,161.2,2.3,155.4,8.1z M170.4,23.1c-2.5,2.5-6.5,2.5-8.9,0c-2.5-2.5-2.5-6.5,0-9c2.5-2.5,6.5-2.5,8.9,0
				C172.8,16.7,172.8,20.7,170.4,23.1z"/>
			<linearGradient id="SVGID_4_" gradientUnits="userSpaceOnUse" x1="157.3859" y1="18.6586" x2="180.7493" y2="18.6586">
				<stop  offset="0" style="stop-color:#4689C8"/>
				<stop  offset="1" style="stop-color:#0072A9"/>
			</linearGradient>
			<path class="st5" d="M157.4,6.4c3.9-0.1,7.8,1.4,10.7,4.4c1.3,1.3,2.3,2.7,3,4.3c0.7,1,1.1,2.2,1.1,3.5c0.9,4.7-0.5,9.7-4.1,13.4
				c-0.6,0.6-1.3,1.2-2,1.7c3.7-0.1,7.4-1.5,10.3-4.4c5.8-5.8,5.8-15.3,0-21.1C171.2,2.9,163.2,2.3,157.4,6.4z"/>
			<linearGradient id="SVGID_5_" gradientUnits="userSpaceOnUse" x1="171.5305" y1="9.2363" x2="164.6355" y2="19.7113">
				<stop  offset="0" style="stop-color:#49BEEE"/>
				<stop  offset="1" style="stop-color:#19559F"/>
			</linearGradient>
			<path class="st6" d="M174.6,30.7c-3.9,0.1-7.8-1.4-10.7-4.4c-1.3-1.3-2.3-2.7-3-4.3c-0.7-1-1.1-2.2-1.1-3.5
				c-0.9-4.7,0.5-9.7,4.1-13.4c0.6-0.6,1.3-1.2,2-1.7c-3.7,0.1-7.4,1.5-10.3,4.4c-5.8,5.8-5.8,15.3,0,21.1
				C160.7,34.3,168.8,34.8,174.6,30.7z"/>
			<linearGradient id="SVGID_6_" gradientUnits="userSpaceOnUse" x1="164.4571" y1="23.5334" x2="168.5219" y2="31.722">
				<stop  offset="0" style="stop-color:#2395CE"/>
				<stop  offset="1" style="stop-color:#0D4C97"/>
			</linearGradient>
			<path class="st7" d="M162.3,25.5c-0.6-0.3-1.1-0.7-1.6-1.2c0,0,0,0,0,0c-0.3-0.3-0.6-0.6-1-0.9c-4.2-4.2-5.3-10.3-3.5-15.5
				c-0.5,0.4-1.1,0.9-1.6,1.4c-5.8,5.8-5.8,15.3,0,21.1c5.8,5.8,15.2,5.8,21,0c1.6-1.6,2.8-3.6,3.5-5.6
				C174.2,28.5,167.4,28.8,162.3,25.5z"/>
			<linearGradient id="SVGID_7_" gradientUnits="userSpaceOnUse" x1="159.9871" y1="27.6781" x2="158.0991" y2="31.2771">
				<stop  offset="0" style="stop-color:#2395CE"/>
				<stop  offset="1" style="stop-color:#0D4C97"/>
			</linearGradient>
			<path class="st8" d="M160,27.8c-0.6-0.3-1.1-0.7-1.6-1.2c0,0,0,0,0,0c-0.3-0.3-0.6-0.6-1-0.9c-4.2-4.2-5.3-10.3-3.5-15.5
				c-0.5,0.4-1.1,0.9-1.6,1.4c-5.8,5.8-5.8,15.3,0,21.1c5.8,5.8,15.2,5.8,21,0c1.6-1.6,2.8-3.6,3.5-5.6
				C172,30.8,165.2,31.1,160,27.8z"/>
			<g>
				<g>
					<linearGradient id="SVGID_8_" gradientUnits="userSpaceOnUse" x1="164.9017" y1="18.1181" x2="175.3026" y2="7.247">
						<stop  offset="0" style="stop-color:#2871B7"/>
						<stop  offset="1" style="stop-color:#2395CE"/>
					</linearGradient>
					<path class="st9" d="M155.4,6.6c-2.8,2.8-4.2,6.4-4.3,10.1c0.5-0.7,1-1.3,1.6-1.9c3.8-3.8,9-5.1,13.9-4c1,0.1,1.9,0.4,2.7,0.9
						c1.6,0.7,3.1,1.7,4.4,3.1c3,3,4.5,7.1,4.3,11c4.2-5.8,3.6-14-1.6-19.3C170.6,0.8,161.2,0.8,155.4,6.6z"/>
				</g>
			</g>
			<g>
				<linearGradient id="SVGID_9_" gradientUnits="userSpaceOnUse" x1="163.2905" y1="22.7972" x2="142.286" y2="36.4038">
					<stop  offset="0" style="stop-color:#24B2DD"/>
					<stop  offset="1" style="stop-color:#2262AA"/>
				</linearGradient>
				<path class="st10" d="M175.6,31.5c2.8-2.8,4.2-6.4,4.3-10.1c-0.5,0.7-1,1.3-1.6,1.9c-3.8,3.8-9,5.1-13.9,4
					c-1-0.1-1.9-0.4-2.7-0.9c-1.6-0.7-3.1-1.7-4.4-3.1c-3-3-4.5-7.1-4.3-11c-4.2,5.8-3.6,14,1.6,19.3
					C160.4,37.4,169.8,37.4,175.6,31.5z"/>
			</g>
			<linearGradient id="SVGID_10_" gradientUnits="userSpaceOnUse" x1="185.6041" y1="23.647" x2="174.3275" y2="18.7722">
				<stop  offset="0" style="stop-color:#24B2DD"/>
				<stop  offset="1" style="stop-color:#2395CE"/>
			</linearGradient>
			<path class="st11" d="M155.7,6.8c-0.4,0.4-0.8,0.8-1.1,1.3c5.2-1.7,11.1-0.5,15.2,3.6c5.4,5.4,5.8,14,1.1,19.8
				c2.1-0.7,4.1-1.9,5.8-3.6c5.8-5.8,5.8-15.3,0-21.1C170.9,1,161.5,1,155.7,6.8z"/>
			<linearGradient id="SVGID_11_" gradientUnits="userSpaceOnUse" x1="166.4006" y1="14.6351" x2="174.2645" y2="15.8088">
				<stop  offset="0" style="stop-color:#24B2DD"/>
				<stop  offset="1" style="stop-color:#2B2A5F"/>
			</linearGradient>
			<path class="st12" d="M158.6,5.3c-0.4,0.4-0.8,0.8-1.1,1.3c5.2-1.7,11.1-0.5,15.2,3.6c5.4,5.4,5.8,14,1.1,19.8
				c2.1-0.7,4.1-1.9,5.8-3.6c5.8-5.8,5.8-15.3,0-21.1C173.8-0.5,164.4-0.5,158.6,5.3z"/>
		</g>
	</g>
	<linearGradient id="SVGID_12_" gradientUnits="userSpaceOnUse" x1="56.1917" y1="17.5741" x2="83.9248" y2="17.5741">
		<stop  offset="0" style="stop-color:#49BEEE"/>
		<stop  offset="1" style="stop-color:#19559F"/>
	</linearGradient>
	<path class="st13" d="M56.2,4.8l10.2,21L79.1,0.6h4.8l-17.4,34L56.4,14.7L56.2,4.8z"/>
	<linearGradient id="SVGID_13_" gradientUnits="userSpaceOnUse" x1="82.8802" y1="18.8569" x2="99.7687" y2="18.8569">
		<stop  offset="0" style="stop-color:#49BEEE"/>
		<stop  offset="1" style="stop-color:#19559F"/>
	</linearGradient>
	<path class="st14" d="M87.2,28.3h12.6v4.3H82.9V5.1h14.8v4.3H87.2v4.7h10.5v4.3H87.2V28.3z"/>
	<linearGradient id="SVGID_14_" gradientUnits="userSpaceOnUse" x1="103.092" y1="18.8569" x2="126.3185" y2="18.8569">
		<stop  offset="0" style="stop-color:#49BEEE"/>
		<stop  offset="1" style="stop-color:#19559F"/>
	</linearGradient>
	<path class="st15" d="M103.1,5.1h13.2c6.7,0,10,3.1,10,9.4c0,5.8-2.8,9-8.4,9.5l5,8.7h-4.7l-4.9-8.7h-5.9v8.7h-4.3V5.1z
		 M122.2,14.5c0-3.4-1.8-5.1-5.4-5.1h-9.4v10.3h9.4C120.4,19.7,122.2,17.9,122.2,14.5z"/>
	<linearGradient id="SVGID_15_" gradientUnits="userSpaceOnUse" x1="128.9464" y1="18.8569" x2="149.3128" y2="18.8569">
		<stop  offset="0" style="stop-color:#49BEEE"/>
		<stop  offset="1" style="stop-color:#19559F"/>
	</linearGradient>
	<path class="st16" d="M145.1,24.2c0-2.6-1.6-3.9-4.7-3.9h-3c-5.6,0-8.5-2.6-8.5-7.9c0-4.9,2.8-7.3,8.4-7.3h8.2v4.3h-8.7
		c-2.4,0-3.7,1-3.7,3.1c0,2.4,1.2,3.6,3.7,3.6h3.1c6.3,0,9.4,2.8,9.4,8.3c0,5.5-3.1,8.3-9.4,8.3h-10.7v-4.3h11.2
		C143.6,28.3,145.1,27,145.1,24.2z"/>
	<g class="st17">
		<g>
			<linearGradient id="SVGID_16_" gradientUnits="userSpaceOnUse" x1="0.15" y1="18.6014" x2="23.0671" y2="18.6014">
				<stop  offset="0" style="stop-color:#49BEEE"/>
				<stop  offset="1" style="stop-color:#19559F"/>
			</linearGradient>
			<path class="st18" d="M12,28.1c4.5,0,6.8-3.1,6.8-9.3v-14h4.3v13.9c0,9.3-3.7,13.9-11.1,13.9c-7.9,0-11.9-4.6-11.9-13.8v-14h4.3
				v14C4.5,25,7,28.1,12,28.1z"/>
			<linearGradient id="SVGID_17_" gradientUnits="userSpaceOnUse" x1="25.8492" y1="16.3986" x2="46.4865" y2="16.3986">
				<stop  offset="0" style="stop-color:#49BEEE"/>
				<stop  offset="1" style="stop-color:#19559F"/>
			</linearGradient>
			<path class="st19" d="M43.9,32.3L30.1,13.8v18.5h-4.3V4.7h2.6l13.8,18.5V0.5h4.2v31.8H43.9z"/>
			<linearGradient id="SVGID_18_" gradientUnits="userSpaceOnUse" x1="50.0031" y1="18.5048" x2="54.2931" y2="18.5048">
				<stop  offset="0" style="stop-color:#49BEEE"/>
				<stop  offset="1" style="stop-color:#19559F"/>
			</linearGradient>
			<path class="st20" d="M50,32.3V4.7h4.3v27.6H50z"/>
		</g>
	</g>
</g>
</svg>
